<svg xmlns:dc="http://purl.org/dc/elements/1.1/" xmlns:cc="http://creativecommons.org/ns#" xmlns:rdf="http://www.w3.org/1999/02/22-rdf-syntax-ns#" xmlns:svg="http://www.w3.org/2000/svg" xmlns="http://www.w3.org/2000/svg" xmlns:sodipodi="http://sodipodi.sourceforge.net/DTD/sodipodi-0.dtd" xmlns:inkscape="http://www.inkscape.org/namespaces/inkscape" version="1.1" x="0px" y="0px" viewBox="0 0 80 100"><g transform="translate(0,-972.36218)"><path style="text-indent:0;text-transform:none;direction:ltr;block-progression:tb;baseline-shift:baseline;color:#000000;enable-background:accumulate;" d="m 30,998.36213 c -0.5523,0 -1,0.4477 -1,1 l 0,25.99997 c 0,0.5523 0.4477,1.0001 1,1.0001 0.5523,0 1,-0.4478 1,-1.0001 l 0,-25.99997 c 0,-0.5523 -0.4477,-1 -1,-1 z m 20,0 c -0.5523,0 -1,0.4477 -1,1 l 0,25.99997 c 0,0.5523 0.4477,1.0001 1,1.0001 0.5523,0 1,-0.4478 1,-1.0001 l 0,-25.99997 c 0,-0.5523 -0.4477,-1 -1,-1 z m -25,3.99997 c -0.5523,0 -1,0.4477 -1,1 l 0,18 c 0,0.5523 0.4477,1 1,1 0.5523,0 1,-0.4477 1,-1 l 0,-18 c 0,-0.5523 -0.4477,-1 -1,-1 z m 10,0 c -0.5523,0 -1,0.4477 -1,1 l 0,18 c 0,0.5523 0.4477,1 1,1 0.5523,0 1,-0.4477 1,-1 l 0,-18 c 0,-0.5523 -0.4477,-1 -1,-1 z m 10,0 c -0.5523,0 -1,0.4477 -1,1 l 0,18 c 0,0.5523 0.4477,1 1,1 0.5523,0 1,-0.4477 1,-1 l 0,-18 c 0,-0.5523 -0.4477,-1 -1,-1 z m 10,0 c -0.5523,0 -1,0.4477 -1,1 l 0,18 c 0,0.5523 0.4477,1 1,1 0.5523,0 1,-0.4477 1,-1 l 0,-18 c 0,-0.5523 -0.4477,-1 -1,-1 z m -35,4 c -0.5523,0 -1,0.4477 -1,1 l 0,10 c 0,0.5523 0.4477,1 1,1 0.5523,0 1,-0.4477 1,-1 l 0,-10 c 0,-0.5523 -0.4477,-1 -1,-1 z m 40,0 c -0.5523,0 -1,0.4477 -1,1 l 0,10 c 0,0.5523 0.4477,1 1,1 0.5523,0 1,-0.4477 1,-1 l 0,-10 c 0,-0.5523 -0.4477,-1 -1,-1 z m -20,1 c -0.5523,0 -1,0.4477 -1,1 l 0,8 c 0,0.5523 0.4477,1 1,1 0.5523,0 1,-0.4477 1,-1 l 0,-8 c 0,-0.5523 -0.4477,-1 -1,-1 z m -25,1 c -0.5523,0 -1,0.4477 -1,1 l 0,6 c 0,0.5523 0.4477,1 1,1 0.5523,0 1,-0.4477 1,-1 l 0,-6 c 0,-0.5523 -0.4477,-1 -1,-1 z m 50,0 c -0.5523,0 -1,0.4477 -1,1 l 0,6 c 0,0.5523 0.4477,1 1,1 0.5523,0 1,-0.4477 1,-1 l 0,-6 c 0,-0.5523 -0.4477,-1 -1,-1 z" fill="#00dfc3" fill-opacity="1" stroke="none" marker="none" visibility="visible" display="inline" overflow="visible"/></g></svg>
