<svg xmlns="http://www.w3.org/2000/svg" xmlns:xlink="http://www.w3.org/1999/xlink" version="1.0" x="0px" y="0px" viewBox="0 0 100 125" enable-background="new 0 0 100 100" xml:space="preserve"><path fill="#00dfc3" d="M49.4289856,36.1401978c-4.6804276-6.2620468-16.0147362-13.9725323-23.1509476-7.3624249  c-0.1949615-0.0905991-0.4301548-0.0905991-0.6714668,0.0711021c-1.6094723,1.0777283-2.8618526,2.3355083-3.8313026,3.7215405  c-0.2441769-0.0054474-0.4906979,0.0872574-0.6580868,0.3525543c-4.4909649,7.1189156-7.3079004,15.5190239-7.1617279,23.7829475  c-2.9267921,1.9837189-6.8686199,4.4946938-7.8476262,8.072403c-0.8517084,3.1126709-0.3535085,7.363472,0.5062275,10.4238739  c0.7490201,2.6662674,2.3385673,5.5657272,4.9670415,6.7887192c3.709548,1.7260666,8.1869907-1.5374146,11.2127914-3.3985138  c0.2079582-0.1278763,0.315712-0.3052521,0.3526001-0.4919891c7.5517464,6.8755951,18.7940216,8.9871826,28.0598373,3.4490738  c0.1988792-0.1188889,0.3019524-0.2838364,0.3451004-0.4585419c0.7397499-0.2989349,1.4486313-0.6989899,2.1056175-1.2435379  c3.4673767-2.873848,4.7735634-8.1402588,5.1817856-12.4078751C59.8509941,56.8587303,55.7526741,44.6007042,49.4289856,36.1401978z   M10.6190538,79.3588562c-1.9367476-1.718895-2.6577663-4.6570587-2.9809318-7.1004639  c-0.2610941-1.973877-0.702908-5.145134-0.0204039-7.0637741c0.9871287-2.7751236,3.9682517-4.9751167,6.4241776-6.6569366  c0.3638773,5.0618935,1.8776865,10.0331879,4.8529787,14.583786c0.9645767,1.475296,2.0719776,2.8278809,3.2868004,4.053833  c-0.0592995,0.0195007-0.1175022,0.0278168-0.178093,0.0650864C18.7389069,79.2483826,14.3052826,82.6306534,10.6190538,79.3588562z   M19.0447273,70.3157654c-5.240941-9.6513939-4.2267656-20.6598587,0.0569115-30.3058014  c-0.6618614,5.6653137,0.8620777,11.9950218,2.3130016,17.2786369c2.8278313,10.2975273,7.8336735,18.9670448,18.3245869,22.7312126  c2.27425,0.8159637,4.9291954,1.6236115,7.5085487,1.731514C36.5716019,85.9280624,24.53969,80.4347687,19.0447273,70.3157654z   M54.7586174,75.9831772c-3.9834976,6.8755951-13.0930138,3.7652206-18.7158928,0.7093124  c-5.0877934-2.7649918-8.4157352-7.3354721-10.6529503-12.5709152c-3.9130135-9.1572075-9.115202-25.5589027-0.1122456-33.0734711  c0.2761459,0.2771492,0.7108402,0.3602943,1.0303249-0.0294361c3.8890743-4.7436485,10.6781349-3.2004051,15.2206573-0.3111706  c4.3534927,2.7691994,7.5220718,7.0504875,9.8891182,11.5632401C56.3993416,51.768261,60.5539513,65.9801941,54.7586174,75.9831772z  "/><path fill="#00dfc3" d="M46.1693306,59.724453c-1.2982559-7.0554543-5.2996712-13.4998436-12.2028847-15.9485054  c-0.1014481-0.2624321-0.3288994-0.4734497-0.6920624-0.4816666c-6.6840286-0.1500435-5.6138496,12.4462013-4.6509933,16.4339981  c0.8899345,3.685894,2.6772614,7.1309509,5.1391106,10.0110168c1.7079086,1.9980545,5.7474098,6.356369,8.6953697,6.2503815  C48.3604317,75.7773209,46.7690697,62.9838257,46.1693306,59.724453z M45.1663818,68.1283875  c-0.1885567,2.4296417-0.2205238,4.3624268-2.7037315,5.0769882c-4.5605431,1.312355-9.5404854-6.6504364-11.096199-10.2661819  c-1.1924591-2.7715874-1.8252201-5.7255211-1.8686085-8.7487411c-0.0317287-2.2080193,0.090456-8.5259743,3.1143932-9.2595596  c0.0514641,0.0285759,0.0930367,0.0647011,0.1560173,0.083622c5.4375267,1.6355667,9.1369438,6.0128021,10.9169579,11.2859039  c0.9653397,2.8596077,1.3954964,5.8961105,1.5097466,8.9043312C45.231945,66.1791687,45.2418823,67.1555939,45.1663818,68.1283875z"/><path fill="#00dfc3" d="M40.8211136,58.635067c-1.1290512-3.6082916-3.0570526-7.6979637-7.1256065-7.5614929  c0.0093193-0.0261879,0.0164375-0.0529442,0.0259018-0.0791321c0.342659-0.949379-1.1698112-1.3584137-1.5098457-0.4162025  c-1.7695961,4.903347-1.568903,10.2635078,0.782711,14.9567947c1.1154289,2.2261734,4.5921249,7.9425278,7.8440399,5.904808  C43.8809357,69.5333405,41.6393242,61.2498283,40.8211136,58.635067z M37.5476456,69.1653061  c-0.5323181-0.4966736-1.0072937-1.0428467-1.4248352-1.6388092c-3.3201065-4.2637062-4.2327862-9.731575-2.9121704-14.8513832  c4.5149536-0.7446709,6.1389999,5.9222031,6.7597198,8.9068146c0.2944946,1.4157562,0.9872246,3.5543938,0.5495682,4.9841042  C40.9005318,68.3397827,39.9097672,69.2062073,37.5476456,69.1653061z"/><path fill="#00dfc3" d="M78.0252991,52.035759c-0.3021393-4.9542809-2.4734573-9.1471672-5.7204056-12.8444366  c-3.6591415-4.1665077-8.6249847-8.4743652-13.8299904-10.5799351c-2.6423798-1.0689354-6.6957359-1.2502308-6.5131073,2.690834  c0.0206451,0.4448719,0.3417549,0.6819782,0.6868553,0.7331066c0.0748787,0.1982079,0.2287407,0.3677483,0.4955711,0.4411469  c5.6836624,1.5631218,10.5666046,5.0616035,13.7118645,10.0840263c3.3573761,5.3612175,3.1603622,11.4047928,4.6993561,17.3334923  c0.1277771,0.4922752,0.7180023,0.71772,1.1500702,0.4679031c1.5459213-0.8936615,3.6809235-0.661335,4.794014-2.2527428  C78.5692291,56.5798607,78.1285629,53.7284737,78.0252991,52.035759z M74.4940872,58.0691071  c-0.5035095,0.2709389-1.0741043,0.3911629-1.6354218,0.5603218c-1.5724411-6.5938606-1.5987244-12.9801445-5.8947296-18.656353  c-3.3657379-4.447197-8.0422974-7.5319633-13.4034653-9.006588c-0.0111313-0.0030594-0.0198288,0.0005722-0.0308189-0.0021038  c0.1978722-3.5775185,6.679203,0.2566986,7.652092,0.8513279c1.8254089,1.1155739,3.5343208,2.4134903,5.1657753,3.794651  c2.4216614,2.0499496,4.7597046,4.2835808,6.6061859,6.8763618c2.0511017,2.880249,3.2834091,6.016243,3.5057983,9.5490341  C76.6015625,54.2919464,76.9904327,56.7254143,74.4940872,58.0691071z"/><path fill="#00dfc3" d="M78.6434402,23.9203014c-2.6885376-2.3659-5.4241943-4.690609-8.2183838-6.9309311  c-2.0846405-1.6713057-4.3407364-3.8411942-6.9063721-4.7042751c-2.8027916-0.9426899-6.3959846,0.7341595-5.7642288,3.8380394  c-0.0462532-0.0259933-0.0932274-0.0525627-0.1394348-0.0785561c-0.8799973-0.4931355-1.6702995,0.8587799-0.7903061,1.3521061  c14.8450775,8.3211689,33.2680969,19.7109547,31.6665115,39.3343658c-0.0343094,0.4199295,0.3864288,0.7860527,0.7828979,0.7828979  c1.3299789-0.010704,2.6599579-0.0215034,3.9899445-0.0322075c0.3335342-0.0027695,0.6758575-0.2401619,0.7549438-0.5748444  C97.200737,43.4481468,88.1154938,32.255806,78.6434402,23.9203014z M92.8117447,55.2106476  c-0.6518326,0.8110924-1.9331665,1.1387024-2.6542816,0.289669c-0.331192-0.3899193,0.0007629-2.5394516-0.037178-3.0625954  c-1.260498-17.3689461-16.9400787-27.5738697-30.7427368-35.3990402c0.1299744-0.1627522,0.1871719-0.379694,0.0850067-0.6471901  c1.6639023-2.4333715,3.2782974-3.0942287,4.8431396-1.9826689c0.4857254,0.2729435,0.9505692,0.5785723,1.3944931,0.9166946  c1.2482681,0.8635588,2.4337006,1.8235464,3.6176529,2.7711115c1.9362259,1.549551,3.8275299,3.1560612,5.7134857,4.7661076  c3.3458557,2.8564529,6.6889496,5.7684326,9.5971069,9.0806541c3.6993179,4.2134342,6.7342911,9.0572376,7.9744873,14.5858898  C92.9690475,48.1615944,94.0736771,53.640358,92.8117447,55.2106476z"/></svg>
